<?xml version="1.0"?>
<!DOCTYPE svg PUBLIC '-//W3C//DTD SVG 1.1//EN' 'http://www.w3.org/Graphics/SVG/1.1/DTD/svg11.dtd'>
<svg
    height="100%"
    style="fill-rule:evenodd;clip-rule:evenodd;stroke-linejoin:round;stroke-miterlimit:2;"
    version="1.1" viewBox="0 0 435 100" width="100%" xml:space="preserve"
    xmlns="http://www.w3.org/2000/svg" xmlns:serif="http://www.serif.com/"
    xmlns:xlink="http://www.w3.org/1999/xlink"><g id="Artboard1" transform="matrix(1,0,0,1,-83,-150.1)"><rect height="100" style="fill:none;" width="434.6" x="83" y="150.1"/><clipPath id="_clip1"><rect height="100" width="434.6" x="83" y="150.1"/></clipPath><g clip-path="url(#_clip1)"><g transform="matrix(1,0,0,1,0,0.1)"><path d="M229.2,218.6C224.7,218.6 220.5,217.6 216.7,215.6C213,213.6 210,210.8 207.7,207.1C205.5,203.4 204.4,199.3 204.4,194.8C204.4,190.3 205.5,186.2 207.7,182.6C209.9,179 212.9,176.2 216.7,174.1C220.5,172.1 224.6,171.1 229.2,171.1C233.7,171.1 237.9,172.1 241.6,174.1C245.4,176.1 248.4,178.9 250.5,182.6C252.7,186.2 253.8,190.3 253.8,194.8C253.8,199.3 252.7,203.4 250.5,207.1C248.3,210.7 245.3,213.5 241.6,215.6C237.9,217.6 233.7,218.6 229.2,218.6ZM229.2,208.3C233,208.3 236.1,207.1 238.4,204.6C240.7,202.1 241.9,198.9 241.9,194.8C241.9,190.7 240.7,187.4 238.4,185C236.1,182.5 233.1,181.3 229.2,181.3C225.3,181.3 222.2,182.5 219.9,184.9C217.6,187.3 216.5,190.6 216.5,194.7C216.5,198.8 217.6,202.1 219.9,204.5C222.2,207.1 225.3,208.3 229.2,208.3Z" style="fill:white;fill-rule:nonzero;"/></g><g transform="matrix(1,0,0,1,0,0.1)"><path d="M272,186.5C273.1,184.8 274.7,183.4 276.7,182.3C278.7,181.2 281.1,180.7 283.8,180.7C287,180.7 289.8,181.5 292.4,183C295,184.5 297,186.7 298.4,189.6C299.9,192.5 300.7,195.8 300.7,199.6C300.7,203.4 299.9,206.7 298.4,209.6C296.9,212.5 294.9,214.7 292.4,216.3C289.8,217.8 287,218.6 283.8,218.6C281.2,218.6 278.8,218.1 276.7,217C274.7,215.9 273.1,214.6 272,212.9L272,229L260.3,229L260.3,181.2L272,181.2L272,186.5ZM288.7,199.6C288.7,196.8 287.9,194.6 286.2,193C284.6,191.4 282.6,190.6 280.2,190.6C277.9,190.6 275.9,191.4 274.2,193C272.6,194.6 271.8,196.9 271.8,199.7C271.8,202.5 272.6,204.7 274.2,206.4C275.8,208 277.8,208.8 280.2,208.8C282.5,208.8 284.5,208 286.2,206.4C287.9,204.7 288.7,202.5 288.7,199.6Z" style="fill:white;fill-rule:nonzero;"/></g><g transform="matrix(1,0,0,1,0,0.1)"><path d="M342.8,199.1C342.8,200.2 342.7,201.3 342.6,202.4L316.1,202.4C316.3,204.7 317,206.5 318.4,207.7C319.8,208.9 321.4,209.5 323.4,209.5C326.3,209.5 328.4,208.3 329.5,205.9L342,205.9C341.4,208.3 340.2,210.5 338.5,212.4C336.9,214.3 334.8,215.9 332.3,217C329.8,218.1 327,218.7 323.9,218.7C320.2,218.7 316.8,217.9 313.9,216.4C311,214.9 308.7,212.7 307.1,209.8C305.5,206.9 304.6,203.6 304.6,199.8C304.6,196 305.4,192.6 307,189.8C308.6,186.9 310.9,184.7 313.8,183.2C316.7,181.7 320.1,180.9 323.9,180.9C327.6,180.9 330.9,181.6 333.8,183.1C336.7,184.6 338.9,186.7 340.5,189.5C342,192.2 342.8,195.4 342.8,199.1ZM330.8,196.1C330.8,194.2 330.1,192.6 328.7,191.5C327.3,190.4 325.6,189.8 323.6,189.8C321.6,189.8 320,190.4 318.6,191.5C317.3,192.6 316.5,194.2 316.1,196.2L330.8,196.2L330.8,196.1Z" style="fill:white;fill-rule:nonzero;"/></g><g transform="matrix(1,0,0,1,0,0.1)"><path d="M372.3,180.9C376.8,180.9 380.3,182.3 383,185.1C385.7,187.9 387,191.7 387,196.6L387,218.1L375.4,218.1L375.4,198.1C375.4,195.6 374.7,193.7 373.4,192.4C372.1,191 370.3,190.4 368.1,190.4C365.9,190.4 364.1,191.1 362.8,192.4C361.5,193.8 360.8,195.7 360.8,198.1L360.8,218.1L349,218.1L349,181.2L360.7,181.2L360.7,186.1C361.9,184.5 363.5,183.2 365.5,182.3C367.5,181.4 369.8,180.9 372.3,180.9Z" style="fill:white;fill-rule:nonzero;"/></g><g transform="matrix(1,0,0,1,0,0.1)"><path d="M412.5,218.6C409,218.6 405.8,218 403,216.9C400.2,215.8 398,214.2 396.3,212C394.7,209.8 393.8,207.2 393.7,204.2L406.2,204.2C406.4,205.9 407,207.2 408.1,208.2C409.1,209.1 410.5,209.5 412.2,209.5C413.9,209.5 415.3,209.1 416.3,208.4C417.3,207.6 417.8,206.5 417.8,205.2C417.8,204.1 417.4,203.1 416.6,202.4C415.8,201.7 414.8,201 413.7,200.6C412.6,200.1 410.9,199.6 408.8,198.9C405.7,198 403.2,197.1 401.2,196.1C399.2,195.2 397.5,193.8 396.1,192C394.7,190.2 394,187.8 394,184.9C394,180.6 395.6,177.2 398.9,174.8C402.1,172.3 406.4,171.1 411.6,171.1C416.9,171.1 421.2,172.3 424.4,174.8C427.6,177.2 429.4,180.6 429.6,185L416.9,185C416.8,183.5 416.2,182.3 415.2,181.5C414.2,180.6 412.8,180.2 411.2,180.2C409.8,180.2 408.6,180.6 407.8,181.3C406.9,182 406.5,183 406.5,184.4C406.5,185.9 407.2,187.1 408.7,187.9C410.2,188.7 412.4,189.6 415.5,190.6C418.6,191.6 421.1,192.6 423,193.5C425,194.4 426.7,195.8 428.1,197.5C429.5,199.3 430.2,201.5 430.2,204.3C430.2,206.9 429.5,209.3 428.1,211.5C426.7,213.7 424.7,215.4 422.1,216.7C419.3,218 416.2,218.6 412.5,218.6Z" style="fill:white;fill-rule:nonzero;"/></g><g transform="matrix(1,0,0,1,0,0.1)"><path d="M473.3,199.1C473.3,200.2 473.2,201.3 473.1,202.4L446.6,202.4C446.8,204.7 447.5,206.5 448.9,207.7C450.3,208.9 451.9,209.5 453.9,209.5C456.8,209.5 458.9,208.3 460,205.9L472.5,205.9C471.9,208.3 470.7,210.5 469,212.4C467.4,214.3 465.3,215.9 462.8,217C460.3,218.1 457.5,218.7 454.4,218.7C450.7,218.7 447.3,217.9 444.4,216.4C441.5,214.9 439.2,212.7 437.6,209.8C436,206.9 435.1,203.6 435.1,199.8C435.1,196 435.9,192.6 437.5,189.8C439.1,186.9 441.4,184.7 444.3,183.2C447.2,181.7 450.6,180.9 454.4,180.9C458.1,180.9 461.4,181.6 464.3,183.1C467.2,184.6 469.4,186.7 471,189.5C472.5,192.2 473.3,195.4 473.3,199.1ZM461.3,196.1C461.3,194.2 460.6,192.6 459.2,191.5C457.8,190.4 456.1,189.8 454.1,189.8C452.1,189.8 450.5,190.4 449.1,191.5C447.8,192.6 447,194.2 446.6,196.2L461.3,196.2L461.3,196.1Z" style="fill:white;fill-rule:nonzero;"/></g><g transform="matrix(1,0,0,1,0,0.1)"><path d="M477.2,199.6C477.2,195.8 477.9,192.5 479.4,189.6C480.9,186.7 482.9,184.5 485.5,183C488.1,181.5 490.9,180.7 494.1,180.7C496.8,180.7 499.1,181.2 501.2,182.3C503.3,183.4 504.8,184.7 505.9,186.5L505.9,181.3L517.6,181.3L517.6,218.2L505.9,218.2L505.9,213C504.8,214.7 503.2,216.1 501.1,217.2C499.1,218.3 496.7,218.8 494,218.8C490.9,218.8 488.1,218 485.5,216.5C482.9,214.9 480.9,212.7 479.4,209.8C477.9,206.8 477.2,203.4 477.2,199.6ZM505.8,199.7C505.8,196.9 505,194.7 503.3,193C501.7,191.4 499.7,190.6 497.4,190.6C495.1,190.6 493.1,191.4 491.4,193C489.8,194.6 489,196.8 489,199.6C489,202.4 489.8,204.7 491.4,206.3C493,207.9 495,208.7 497.4,208.7C499.7,208.7 501.7,207.9 503.3,206.3C505,204.8 505.8,202.5 505.8,199.7Z" style="fill:white;fill-rule:nonzero;"/></g><g transform="matrix(1,0,0,1,0,0.1)"><path d="M183,200.1C183,227.7 160.6,250.1 133,250.1C105.4,250.1 83,227.7 83,200.1C83,172.5 105.4,150.1 133,150.1C160.6,150.1 183,172.5 183,200.1Z" style="fill:rgb(32,129,226);fill-rule:nonzero;"/></g><g transform="matrix(1,0,0,1,0,0.1)"><path d="M107.7,201.8L107.9,201.5L120.9,181.2C121.1,180.9 121.5,180.9 121.7,181.3C123.9,186.2 125.7,192.2 124.9,196C124.5,197.6 123.5,199.7 122.3,201.6C122.2,201.9 122,202.2 121.8,202.4C121.7,202.5 121.6,202.6 121.4,202.6L108,202.6C107.7,202.5 107.5,202.1 107.7,201.8Z" style="fill:white;fill-rule:nonzero;"/></g><g transform="matrix(1,0,0,1,0,0.1)"><path d="M165.6,205.6L165.6,208.8C165.6,209 165.5,209.1 165.3,209.2C164.3,209.6 160.8,211.2 159.4,213.2C155.7,218.3 152.9,225.6 146.7,225.6L120.6,225.6C111.4,225.6 103.9,218.1 103.9,208.8L103.9,208.5C103.9,208.3 104.1,208.1 104.3,208.1L119,208.1C119.3,208.1 119.5,208.4 119.5,208.6C119.4,209.5 119.6,210.5 120,211.4C120.9,213.2 122.7,214.2 124.6,214.2L131.8,214.2L131.8,208.6L124.7,208.6C124.3,208.6 124.1,208.2 124.3,207.9C124.4,207.8 124.5,207.7 124.6,207.5C125.3,206.5 126.2,205.1 127.2,203.4C127.9,202.3 128.5,201 129,199.8C129.1,199.6 129.2,199.4 129.3,199.1C129.4,198.7 129.6,198.3 129.7,198C129.8,197.7 129.9,197.4 130,197.1C130.2,196.1 130.3,195 130.3,193.8C130.3,193.4 130.3,192.9 130.2,192.4C130.2,191.9 130.1,191.4 130.1,190.9C130.1,190.5 130,190 129.9,189.6C129.8,188.9 129.7,188.3 129.5,187.6L129.4,187.4C129.3,187 129.2,186.5 129,186.1C128.6,184.7 128.1,183.3 127.6,182.1C127.4,181.6 127.2,181.1 127,180.6C126.7,179.9 126.4,179.2 126.1,178.6C126,178.3 125.8,178.1 125.7,177.8C125.6,177.5 125.4,177.2 125.3,176.9C125.2,176.7 125.1,176.5 125,176.3L124.1,174.7C124,174.5 124.2,174.2 124.4,174.3L129.9,175.8L130.6,176L131.4,176.2L131.7,176.3L131.7,173C131.7,171.4 133,170.1 134.5,170.1C135.3,170.1 136,170.4 136.5,170.9C137,171.4 137.3,172.1 137.3,172.9L137.3,177.7L137.9,177.9C137.9,177.9 138,177.9 138,178C138.1,178.1 138.3,178.3 138.6,178.5C138.8,178.7 139,178.9 139.3,179.1C139.8,179.5 140.5,180.1 141.2,180.7C141.4,180.9 141.6,181 141.7,181.2C142.6,182 143.6,183 144.6,184.1C144.9,184.4 145.1,184.7 145.4,185C145.7,185.3 145.9,185.7 146.2,186C146.5,186.4 146.9,186.9 147.2,187.3C147.3,187.5 147.5,187.7 147.6,188C148,188.6 148.3,189.2 148.7,189.8C148.8,190.1 149,190.4 149.1,190.7C149.5,191.5 149.8,192.3 149.9,193.2C150,193.4 150,193.6 150,193.7C150.1,193.9 150.1,194.2 150.1,194.5C150.2,195.4 150.1,196.2 150,197.1C149.9,197.5 149.8,197.8 149.7,198.2C149.6,198.5 149.5,198.9 149.3,199.3C149,200 148.6,200.7 148.2,201.4C148.1,201.6 147.9,201.9 147.7,202.2C147.5,202.5 147.3,202.7 147.2,203C147,203.3 146.7,203.6 146.5,203.9C146.3,204.2 146.1,204.5 145.8,204.8C145.5,205.2 145.1,205.6 144.8,206C144.6,206.2 144.4,206.5 144.1,206.7C143.9,206.9 143.7,207.2 143.4,207.4C143.1,207.7 142.8,208 142.5,208.2L141.9,208.7C141.8,208.8 141.7,208.8 141.6,208.8L137.2,208.8L137.2,214.4L142.7,214.4C143.9,214.4 145.1,214 146,213.2C146.3,212.9 147.7,211.7 149.4,209.9C149.5,209.8 149.5,209.8 149.6,209.8L164.8,205.4C165.4,205.1 165.6,205.3 165.6,205.6Z" style="fill:white;fill-rule:nonzero;"/></g></g></g></svg>